<?xml version="1.0" standalone="no"?><!DOCTYPE svg PUBLIC "-//W3C//DTD SVG 1.1//EN" "http://www.w3.org/Graphics/SVG/1.1/DTD/svg11.dtd"><svg t="1698313434507" class="icon" viewBox="0 0 1024 1024" version="1.1" xmlns="http://www.w3.org/2000/svg" p-id="22592" xmlns:xlink="http://www.w3.org/1999/xlink" width="64" height="64"><path d="M852.55 852.73h-50.32v-86.4c0-2.21 0-4.42-0.09-6.54v-0.44a24.33 24.33 0 0 0-0.09-2.56c-3.18-102-111.78-190.66-193.75-240.27 81.44-49.26 189.86-137.25 193.75-238.41a29.92 29.92 0 0 0 0.27-4.07V171.18h50.32a36.26 36.26 0 0 0 0-72.52H171.36a36.26 36.26 0 0 0 0 72.52h47.31V274a31.75 31.75 0 0 0 0.26 4.07c3.89 101.17 121.15 189.16 202.6 238.5-81.26 49.26-198.53 137-202.5 238a42.51 42.51 0 0 0-0.35 4.77v93.47h-47.31a36.26 36.26 0 1 0 0 72.52h681.19a36.3 36.3 0 0 0 0-72.6z m-342.4-450.3a36.26 36.26 0 1 1-36.26 36.26 36.25 36.25 0 0 1 36.26-36.26zM473.89 596a36.26 36.26 0 0 1 72.52 0.09v70.75a36.26 36.26 0 0 1-72.52 0z m213.73 247.79h-355a36.26 36.26 0 0 1 0-72.52h355a36.26 36.26 0 1 1 0 72.52z" fill="#F56C6C" p-id="22593"></path></svg>