<?xml version="1.0" standalone="no"?><!DOCTYPE svg PUBLIC "-//W3C//DTD SVG 1.1//EN" "http://www.w3.org/Graphics/SVG/1.1/DTD/svg11.dtd"><svg t="1697435176173" class="icon" viewBox="0 0 1024 1024" version="1.1" xmlns="http://www.w3.org/2000/svg" p-id="1505" width="20" height="20" xmlns:xlink="http://www.w3.org/1999/xlink"><path d="M150.231919 182.30303h724.12703c22.181495 0 33.272242 11.090747 33.272243 33.272243 0 22.18796-11.090747 33.278707-33.272243 33.278707H150.231919c-22.181495 0-33.272242-11.090747-33.272242-33.278707C116.959677 193.393778 128.050424 182.30303 150.231919 182.30303z m0 0M150.231919 776.489374h724.12703c22.181495 0 33.272242 11.095919 33.272243 33.277414s-11.090747 33.272242-33.272243 33.272242H150.231919c-22.181495 0-33.272242-11.090747-33.272242-33.272242s11.090747-33.277414 33.272242-33.277414z m0 0M479.383273 381.641697H874.369293c22.181495 0 33.272242 11.090747 33.272242 33.272242 0 22.186667-11.090747 33.277414-33.272242 33.277415H479.383273c-22.186667 0-33.277414-11.090747-33.277414-33.277415 0-22.181495 11.090747-33.272242 33.277414-33.272242z m0 0M479.383273 581.293253H874.369293c22.181495 0 33.272242 11.090747 33.272242 33.272242s-11.090747 33.270949-33.272242 33.270949H479.383273c-22.186667 0-33.277414-11.089455-33.277414-33.270949s11.090747-33.272242 33.277414-33.272242z m0 0M115.717172 513.075717l197.797495 131.918869V381.156848L115.717172 513.075717z m0 0" fill="#666666" p-id="1506"></path></svg>