<?xml version="1.0" standalone="no"?><!DOCTYPE svg PUBLIC "-//W3C//DTD SVG 1.1//EN" "http://www.w3.org/Graphics/SVG/1.1/DTD/svg11.dtd"><svg t="1698313367126" class="icon" viewBox="0 0 1039 1024" version="1.1" xmlns="http://www.w3.org/2000/svg" p-id="19475" xmlns:xlink="http://www.w3.org/1999/xlink" width="64.9375" height="64"><path d="M110.302258 500.785582h495.247382a98.700171 98.700171 0 0 0 102.917398-74.419162c0.894563-4.558014 2.726289-11.03295 4.558014-18.359851q6.13415-27.43328 14.738998-54.270184h191.053201a36.890094 36.890094 0 0 1 36.762299 36.762299v2.811485l-13.71664 172.735949a36.762299 36.762299 0 1 0 73.482 0v-0.894564l13.759238-175.504835a110.755478 110.755478 0 0 0-110.286897-110.244299h-21.299131V102.917824A102.747005 102.747005 0 0 0 794.771115 0.000426H233.45383a102.789604 102.789604 0 0 0-102.917398 102.917398v324.343159H110.344856A111.224059 111.224059 0 0 0 0.01536 540.27417L36.777659 877.524602a110.755478 110.755478 0 0 0 110.2443 110.286897H681.587535a36.890094 36.890094 0 0 0 0-73.524598H147.021959a37.571666 37.571666 0 0 1-36.719701-39.488588l-36.7623-337.207834a36.847496 36.847496 0 0 1 36.7623-36.762299z m93.716174-397.867758A30.500355 30.500355 0 0 1 234.305795 72.41747h561.44508a30.500355 30.500355 0 0 1 30.287363 30.287363v177.549552h-119.488122c-0.851965 0-1.789127 0.894563-2.68369 0.894563a28.285245 28.285245 0 0 0-12.01271 2.726289c-0.851965 0-0.851965 0.894563-1.789127 0.894563a37.955051 37.955051 0 0 0-10.138386 6.474936 218.955061 218.955061 0 0 0-39.488588 101.043075c-1.831725 6.474936-2.726289 12.01271-3.706048 16.570724-1.831725 6.389739-4.558014 19.254414-31.224526 19.254414H204.018432z" fill="#67C23A" p-id="19476"></path><path d="M914.131442 694.35208l112.118623 103.811962a36.719701 36.719701 0 1 1-51.458699 52.353262l-47.795249-48.73241v183.768898a36.762299 36.762299 0 1 1-73.482 0v-182.789138l-47.795249 48.73241a34.760181 34.760181 0 0 1-25.558957 11.03295 37.017889 37.017889 0 0 1-25.558956-63.386212l111.138862-102.917399a37.742059 37.742059 0 0 1 25.558957-10.138386 35.058369 35.058369 0 0 1 23.003061 8.306661z" fill="#67C23A" p-id="19477"></path></svg>