<?xml version="1.0" standalone="no"?><!DOCTYPE svg PUBLIC "-//W3C//DTD SVG 1.1//EN" "http://www.w3.org/Graphics/SVG/1.1/DTD/svg11.dtd"><svg t="1698313408344" class="icon" viewBox="0 0 1024 1024" version="1.1" xmlns="http://www.w3.org/2000/svg" p-id="21498" xmlns:xlink="http://www.w3.org/1999/xlink" width="64" height="64"><path d="M261.851429 109.714286a69.851429 69.851429 0 0 0-69.485715 63.268571l-26.697143 292.571429h283.428572L481.645714 109.714286zM526.262857 717.165714A236.617143 236.617143 0 0 1 877.714286 512l-30.72-337.554286A69.851429 69.851429 0 0 0 777.874286 109.714286h-224.548572l-73.142857 786.285714h126.537143a235.885714 235.885714 0 0 1-80.457143-178.834286zM133.485714 819.931429a69.851429 69.851429 0 0 0 69.485715 76.068571h207.36l32.548571-357.302857H159.085714z" fill="#909399" p-id="21499"></path><path d="M884.662857 583.314286a178.834286 178.834286 0 1 0 59.977143 134.217143 180.297143 180.297143 0 0 0-59.977143-134.217143z m-146.285714 244.297143a26.331429 26.331429 0 1 1 26.331428 26.331428 26.331429 26.331429 0 0 1-25.234285-26.697143zM796.525714 621.714286l-9.508571 129.097143a23.405714 23.405714 0 0 1-46.811429 0L731.428571 621.714286a29.622857 29.622857 0 0 1 31.451429-29.257143 30.354286 30.354286 0 0 1 32.914286 28.16z" fill="#909399" p-id="21500"></path></svg>