<?xml version="1.0" standalone="no"?><!DOCTYPE svg PUBLIC "-//W3C//DTD SVG 1.1//EN" "http://www.w3.org/Graphics/SVG/1.1/DTD/svg11.dtd"><svg t="1698313330361" class="icon" viewBox="0 0 1024 1024" version="1.1" xmlns="http://www.w3.org/2000/svg" p-id="18290" width="64" height="64" xmlns:xlink="http://www.w3.org/1999/xlink"><path d="M0 853.312h85.312v85.376H0v-85.376z m0 85.376h85.312V1024H0v-85.312z m85.312 0h85.376V1024H85.312v-85.312z m85.376 0H256V1024H170.688v-85.312zM0 768h85.312v85.312H0V768z m938.688 0H1024v85.312h-85.312V768zM768 938.688h85.312V1024H768v-85.312z m85.312 0h85.376V1024h-85.376v-85.312z m85.376 0H1024V1024h-85.312v-85.312z m0-85.376H1024v85.376h-85.312v-85.376zM768 0h85.312v85.312H768V0z m170.688 0H1024v85.312h-85.312V0z m-85.376 0h85.376v85.312h-85.376V0z m85.376 170.688H1024V256h-85.312V170.688z m0-85.376H1024v85.376h-85.312V85.312zM0 0h85.312v85.312H0V0z m170.688 0H256v85.312H170.688V0zM85.312 0h85.376v85.312H85.312V0zM0 170.688h85.312V256H0V170.688z m0-85.376h85.312v85.376H0V85.312z m85.312 0v853.376h853.376V85.312H85.312z m708.032 708.032a64.576 64.576 0 0 1-91.328 1.6L241.408 349.632a64.64 64.64 0 0 1 89.792-92.864l460.608 445.248a64.576 64.576 0 0 1 1.536 91.328z" fill="#2997FD" p-id="18291"></path></svg>